<?xml version="1.0" standalone="no"?>
<!DOCTYPE svg PUBLIC "-//W3C//DTD SVG 20010904//EN"
 "http://www.w3.org/TR/2001/REC-SVG-20010904/DTD/svg10.dtd">
<svg version="1.0" xmlns="http://www.w3.org/2000/svg"
 width="260.000000pt" height="260.000000pt" viewBox="0 0 260.000000 260.000000"
 preserveAspectRatio="xMidYMid meet">
<metadata>
Created by potrace 1.11, written by Peter Selinger 2001-2013
</metadata>
<g transform="translate(0.000000,260.000000) scale(0.100000,-0.100000)"
fill="#000000" stroke="none">
<path d="M1008 2376 c-92 -61 -271 -178 -398 -261 -127 -82 -237 -154 -245
-160 -14 -10 -7 -32 54 -170 12 -28 73 -173 114 -275 92 -226 180 -439 196
-475 23 -49 34 -78 35 -87 1 -5 5 -9 10 -10 8 -3 87 278 101 357 2 16 12 52
20 79 8 27 15 57 15 67 0 10 -30 80 -67 156 -38 76 -80 164 -95 196 l-28 57
195 146 c107 80 195 146 195 148 0 2 12 48 26 102 43 166 52 204 46 204 -3 0
-1 5 6 12 16 16 15 28 0 27 -7 -1 -88 -51 -180 -113z"/>
<path d="M1274 2192 c-12 -10 -36 -29 -55 -43 -40 -31 -403 -311 -407 -314 -3
-3 36 -88 119 -260 23 -49 43 -92 44 -95 1 -3 23 -50 49 -105 27 -55 64 -132
82 -172 40 -84 54 -97 55 -51 0 18 2 42 4 53 2 11 7 43 10 70 11 87 24 187 32
235 11 69 13 86 18 130 3 25 7 56 10 70 2 14 7 48 10 75 4 28 8 57 10 65 6 23
19 131 20 163 0 15 2 27 5 27 4 0 9 39 14 105 1 11 4 25 8 30 14 22 -6 34 -28
17z"/>
<path d="M1840 1930 c-6 -11 -42 -102 -81 -202 -110 -284 -179 -461 -188 -483
-16 -38 -40 -100 -146 -375 -58 -151 -110 -283 -115 -292 -6 -10 -10 -25 -10
-35 0 -34 -20 4 -75 147 -31 80 -100 253 -152 385 -83 208 -98 250 -102 274
-2 12 -25 -21 -28 -39 -2 -12 -23 -97 -48 -189 -25 -92 -47 -176 -49 -187 -2
-11 -11 -43 -19 -70 -13 -45 -13 -53 3 -89 10 -22 48 -112 85 -200 37 -88 76
-178 85 -200 10 -22 34 -80 55 -130 20 -50 42 -100 48 -112 10 -23 14 -23 189
-23 l178 0 26 58 c14 31 27 64 29 72 2 8 10 29 19 45 9 17 16 33 16 38 0 4 9
26 19 50 11 23 68 159 126 302 59 143 113 274 120 290 14 31 38 89 190 460 48
116 104 251 125 300 60 142 90 216 90 220 0 2 -85 4 -190 4 -179 1 -190 0
-200 -19z"/>
</g>
</svg>
