<svg xmlns="http://www.w3.org/2000/svg" width="1440" height="900"><path d="M665,559L540,592L549,725Z" fill="#d0e9f3" stroke="#d0e9f3" stroke-width="1.51"/><path d="M549,725L720,740L665,559Z" fill="#cde6f4" stroke="#cde6f4" stroke-width="1.51"/><path d="M540,592L451,596L549,725Z" fill="#c6e4f0" stroke="#c6e4f0" stroke-width="1.51"/><path d="M438,451L451,596L540,592Z" fill="#d3ecf1" stroke="#d3ecf1" stroke-width="1.51"/><path d="M451,596L455,737L549,725Z" fill="#b9deed" stroke="#b9deed" stroke-width="1.51"/><path d="M549,725L558,903L720,740Z" fill="#b3daee" stroke="#b3daee" stroke-width="1.51"/><path d="M720,740L859,648L665,559Z" fill="#d7eaf8" stroke="#d7eaf8" stroke-width="1.51"/><path d="M823,717L859,648L720,740Z" fill="#c7e2f4" stroke="#c7e2f4" stroke-width="1.51"/><path d="M665,559L615,399L540,592Z" fill="#e7f4f8" stroke="#e7f4f8" stroke-width="1.51"/><path d="M873,446L686,410L665,559Z" fill="#f9fcfd" stroke="#f9fcfd" stroke-width="1.51"/><path d="M686,410L615,399L665,559Z" fill="#f7fcfc" stroke="#f7fcfc" stroke-width="1.51"/><path d="M455,737L558,903L549,725Z" fill="#a9d6ea" stroke="#a9d6ea" stroke-width="1.51"/><path d="M720,740L855,940L823,717Z" fill="#b4d9f1" stroke="#b4d9f1" stroke-width="1.51"/><path d="M615,399L438,451L540,592Z" fill="#e5f4f6" stroke="#e5f4f6" stroke-width="1.51"/><path d="M451,596L303,615L455,737Z" fill="#b7deeb" stroke="#b7deeb" stroke-width="1.51"/><path d="M558,903L695,956L720,740Z" fill="#aad5ee" stroke="#aad5ee" stroke-width="1.51"/><path d="M438,451L303,615L451,596Z" fill="#c9e8ee" stroke="#c9e8ee" stroke-width="1.51"/><path d="M455,737L367,983L558,903Z" fill="#90cce5" stroke="#90cce5" stroke-width="1.51"/><path d="M859,648L873,446L665,559Z" fill="#e4f1fa" stroke="#e4f1fa" stroke-width="1.51"/><path d="M686,410L673,324L615,399Z" fill="#ecf8f7" stroke="#ecf8f7" stroke-width="1.51"/><path d="M615,399L427,304L438,451Z" fill="#dbf1f1" stroke="#dbf1f1" stroke-width="1.51"/><path d="M855,305L673,324L686,410Z" fill="#ebf7f7" stroke="#ebf7f7" stroke-width="1.51"/><path d="M695,956L855,940L720,740Z" fill="#aad4ef" stroke="#aad4ef" stroke-width="1.51"/><path d="M1095,764L993,593L859,648Z" fill="#b7dbf1" stroke="#b7dbf1" stroke-width="1.51"/><path d="M859,648L993,593L873,446Z" fill="#d5eaf7" stroke="#d5eaf7" stroke-width="1.51"/><path d="M1095,764L859,648L823,717Z" fill="#b6daf1" stroke="#b6daf1" stroke-width="1.51"/><path d="M303,615L249,762L455,737Z" fill="#a4d7e6" stroke="#a4d7e6" stroke-width="1.51"/><path d="M438,451L280,399L303,615Z" fill="#cfecee" stroke="#cfecee" stroke-width="1.51"/><path d="M602,233L427,304L615,399Z" fill="#d5efef" stroke="#d5efef" stroke-width="1.51"/><path d="M558,903L524,1044L695,956Z" fill="#9acfe9" stroke="#9acfe9" stroke-width="1.51"/><path d="M695,956L751,1080L855,940Z" fill="#a4d1ee" stroke="#a4d1ee" stroke-width="1.51"/><path d="M367,983L524,1044L558,903Z" fill="#8dcae5" stroke="#8dcae5" stroke-width="1.51"/><path d="M253,868L367,983L455,737Z" fill="#86c9e1" stroke="#86c9e1" stroke-width="1.51"/><path d="M873,446L855,305L686,410Z" fill="#ebf6f9" stroke="#ebf6f9" stroke-width="1.51"/><path d="M673,324L602,233L615,399Z" fill="#dff3f2" stroke="#dff3f2" stroke-width="1.51"/><path d="M1009,280L855,305L873,446Z" fill="#d7ecf4" stroke="#d7ecf4" stroke-width="1.51"/><path d="M728,141L602,233L673,324Z" fill="#d3efee" stroke="#d3efee" stroke-width="1.51"/><path d="M427,304L280,399L438,451Z" fill="#ceedec" stroke="#ceedec" stroke-width="1.51"/><path d="M38,605L43,718L249,762Z" fill="#8bcedd" stroke="#8bcedd" stroke-width="1.51"/><path d="M249,762L253,868L455,737Z" fill="#90cee2" stroke="#90cee2" stroke-width="1.51"/><path d="M524,1044L751,1080L695,956Z" fill="#a2d2ec" stroke="#a2d2ec" stroke-width="1.51"/><path d="M855,940L998,922L823,717Z" fill="#9cceec" stroke="#9cceec" stroke-width="1.51"/><path d="M895,1084L998,922L855,940Z" fill="#90c9ea" stroke="#90c9ea" stroke-width="1.51"/><path d="M993,593L1045,456L873,446Z" fill="#d9ebf8" stroke="#d9ebf8" stroke-width="1.51"/><path d="M1146,603L1045,456L993,593Z" fill="#c4e1f4" stroke="#c4e1f4" stroke-width="1.51"/><path d="M998,922L1095,764L823,717Z" fill="#9dcfed" stroke="#9dcfed" stroke-width="1.51"/><path d="M275,1082L361,1070L367,983Z" fill="#79c5df" stroke="#79c5df" stroke-width="1.51"/><path d="M367,983L361,1070L524,1044Z" fill="#84c8e2" stroke="#84c8e2" stroke-width="1.51"/><path d="M755,1284L839,1202L751,1080Z" fill="#a2d1ed" stroke="#a2d1ed" stroke-width="1.51"/><path d="M839,1202L895,1084L751,1080Z" fill="#9cceec" stroke="#9cceec" stroke-width="1.51"/><path d="M751,1080L895,1084L855,940Z" fill="#9bceec" stroke="#9bceec" stroke-width="1.51"/><path d="M855,305L728,141L673,324Z" fill="#daf0f1" stroke="#daf0f1" stroke-width="1.51"/><path d="M1009,280L856,189L855,305Z" fill="#c8e7ee" stroke="#c8e7ee" stroke-width="1.51"/><path d="M856,189L728,141L855,305Z" fill="#cbeaed" stroke="#cbeaed" stroke-width="1.51"/><path d="M384,113L225,310L427,304Z" fill="#b1e2e1" stroke="#b1e2e1" stroke-width="1.51"/><path d="M1095,764L1146,603L993,593Z" fill="#aed6f0" stroke="#aed6f0" stroke-width="1.51"/><path d="M427,304L225,310L280,399Z" fill="#bee7e6" stroke="#bee7e6" stroke-width="1.51"/><path d="M38,605L249,762L303,615Z" fill="#9dd5e2" stroke="#9dd5e2" stroke-width="1.51"/><path d="M249,762L128,900L253,868Z" fill="#76c4dc" stroke="#76c4dc" stroke-width="1.51"/><path d="M384,113L427,304L602,233Z" fill="#bae5e5" stroke="#bae5e5" stroke-width="1.51"/><path d="M1219,345L1009,280L1045,456Z" fill="#c4e3f1" stroke="#c4e3f1" stroke-width="1.51"/><path d="M1045,456L1009,280L873,446Z" fill="#d8ecf6" stroke="#d8ecf6" stroke-width="1.51"/><path d="M728,141L612,114L602,233Z" fill="#c5e9e9" stroke="#c5e9e9" stroke-width="1.51"/><path d="M895,1084L1025,1031L998,922Z" fill="#88c6e9" stroke="#88c6e9" stroke-width="1.51"/><path d="M998,922L1197,871L1095,764Z" fill="#82c3e8" stroke="#82c3e8" stroke-width="1.51"/><path d="M1095,764L1230,789L1146,603Z" fill="#97cbeb" stroke="#97cbeb" stroke-width="1.51"/><path d="M613,1275L751,1080L524,1044Z" fill="#9fd0eb" stroke="#9fd0eb" stroke-width="1.51"/><path d="M253,868L275,1082L367,983Z" fill="#75c3dd" stroke="#75c3dd" stroke-width="1.51"/><path d="M43,718L128,900L249,762Z" fill="#78c6db" stroke="#78c6db" stroke-width="1.51"/><path d="M253,868L128,900L275,1082Z" fill="#69c0da" stroke="#69c0da" stroke-width="1.51"/><path d="M38,605L303,615L81,404Z" fill="#addee3" stroke="#addee3" stroke-width="1.51"/><path d="M81,404L303,615L280,399Z" fill="#c4e8e9" stroke="#c4e8e9" stroke-width="1.51"/><path d="M613,1275L524,1044L452,1272Z" fill="#93cce7" stroke="#93cce7" stroke-width="1.51"/><path d="M895,1084L1000,1234L1025,1031Z" fill="#88c6e9" stroke="#88c6e9" stroke-width="1.51"/><path d="M612,114L384,113L602,233Z" fill="#b6e3e3" stroke="#b6e3e3" stroke-width="1.51"/><path d="M69,342L81,404L225,310Z" fill="#ace0e0" stroke="#ace0e0" stroke-width="1.51"/><path d="M225,310L81,404L280,399Z" fill="#b7e4e4" stroke="#b7e4e4" stroke-width="1.51"/><path d="M1025,1031L1197,871L998,922Z" fill="#7ac0e7" stroke="#7ac0e7" stroke-width="1.51"/><path d="M452,1272L524,1044L361,1070Z" fill="#88c9e3" stroke="#88c9e3" stroke-width="1.51"/><path d="M1197,871L1230,789L1095,764Z" fill="#81c2e8" stroke="#81c2e8" stroke-width="1.51"/><path d="M1146,603L1250,471L1045,456Z" fill="#c2e0f4" stroke="#c2e0f4" stroke-width="1.51"/><path d="M115,136L69,342L225,310Z" fill="#9cdada" stroke="#9cdada" stroke-width="1.51"/><path d="M81,404L-44,417L38,605Z" fill="#addfe1" stroke="#addfe1" stroke-width="1.51"/><path d="M267,1287L452,1272L361,1070Z" fill="#7dc6e0" stroke="#7dc6e0" stroke-width="1.51"/><path d="M839,1202L1000,1234L895,1084Z" fill="#91c9ea" stroke="#91c9ea" stroke-width="1.51"/><path d="M1025,1031L1212,1052L1197,871Z" fill="#6fbce5" stroke="#6fbce5" stroke-width="1.51"/><path d="M613,1275L755,1284L751,1080Z" fill="#a8d4ee" stroke="#a8d4ee" stroke-width="1.51"/><path d="M267,1287L755,1284L613,1275Z" fill="#95cde7" stroke="#95cde7" stroke-width="1.51"/><path d="M1320,498L1250,471L1146,603Z" fill="#b4d9f1" stroke="#b4d9f1" stroke-width="1.51"/><path d="M755,-61L728,141L853,-81Z" fill="#a8dde0" stroke="#a8dde0" stroke-width="1.51"/><path d="M755,-61L612,114L728,141Z" fill="#b9e4e4" stroke="#b9e4e4" stroke-width="1.51"/><path d="M755,-61L559,-9L612,114Z" fill="#a9dfdf" stroke="#a9dfdf" stroke-width="1.51"/><path d="M612,114L559,-9L384,113Z" fill="#a5dddd" stroke="#a5dddd" stroke-width="1.51"/><path d="M1009,280L1081,115L856,189Z" fill="#b3dfe8" stroke="#b3dfe8" stroke-width="1.51"/><path d="M1250,471L1219,345L1045,456Z" fill="#c6e3f4" stroke="#c6e3f4" stroke-width="1.51"/><path d="M43,718L-71,948L128,900Z" fill="#58bcd4" stroke="#58bcd4" stroke-width="1.51"/><path d="M128,900L73,1060L275,1082Z" fill="#60bdd8" stroke="#60bdd8" stroke-width="1.51"/><path d="M38,605L-55,717L43,718Z" fill="#81cbd9" stroke="#81cbd9" stroke-width="1.51"/><path d="M-101,646L-55,717L38,605Z" fill="#85cdda" stroke="#85cdda" stroke-width="1.51"/><path d="M275,1082L267,1287L361,1070Z" fill="#75c3dd" stroke="#75c3dd" stroke-width="1.51"/><path d="M-71,948L73,1060L128,900Z" fill="#4cb8d3" stroke="#4cb8d3" stroke-width="1.51"/><path d="M559,-9L372,8L384,113Z" fill="#95d7d8" stroke="#95d7d8" stroke-width="1.51"/><path d="M384,113L186,89L225,310Z" fill="#9ad9d9" stroke="#9ad9d9" stroke-width="1.51"/><path d="M755,1284L1000,1234L839,1202Z" fill="#97ccec" stroke="#97ccec" stroke-width="1.51"/><path d="M1219,345L1081,115L1009,280Z" fill="#aedbe9" stroke="#aedbe9" stroke-width="1.51"/><path d="M-30,336L-44,417L81,404Z" fill="#a4dcdd" stroke="#a4dcdd" stroke-width="1.51"/><path d="M-30,336L81,404L69,342Z" fill="#a3dcdd" stroke="#a3dcdd" stroke-width="1.51"/><path d="M1184,1221L1212,1052L1025,1031Z" fill="#6fbce5" stroke="#6fbce5" stroke-width="1.51"/><path d="M1197,871L1335,796L1230,789Z" fill="#72bde6" stroke="#72bde6" stroke-width="1.51"/><path d="M372,8L186,89L384,113Z" fill="#8cd5d5" stroke="#8cd5d5" stroke-width="1.51"/><path d="M1250,471L1323,295L1219,345Z" fill="#b1d9ed" stroke="#b1d9ed" stroke-width="1.51"/><path d="M1219,345L1240,107L1081,115Z" fill="#99d2e3" stroke="#99d2e3" stroke-width="1.51"/><path d="M1364,555L1320,498L1146,603Z" fill="#aad4ef" stroke="#aad4ef" stroke-width="1.51"/><path d="M1364,555L1146,603L1230,789Z" fill="#9acdec" stroke="#9acdec" stroke-width="1.51"/><path d="M-44,417L-101,646L38,605Z" fill="#9ad7dd" stroke="#9ad7dd" stroke-width="1.51"/><path d="M-55,717L-71,948L43,718Z" fill="#64c0d5" stroke="#64c0d5" stroke-width="1.51"/><path d="M186,89L115,136L225,310Z" fill="#90d6d6" stroke="#90d6d6" stroke-width="1.51"/><path d="M-224,667L-183,790L-101,646Z" fill="#7bc9d8" stroke="#7bc9d8" stroke-width="1.51"/><path d="M115,136L-30,336L69,342Z" fill="#93d7d7" stroke="#93d7d7" stroke-width="1.51"/><path d="M1302,963L1335,796L1197,871Z" fill="#5fb6e3" stroke="#5fb6e3" stroke-width="1.51"/><path d="M853,-81L728,141L856,189Z" fill="#b3e1e5" stroke="#b3e1e5" stroke-width="1.51"/><path d="M411,-200L270,-44L372,8Z" fill="#82d1d2" stroke="#82d1d2" stroke-width="1.51"/><path d="M105,1272L267,1287L275,1082Z" fill="#69c0da" stroke="#69c0da" stroke-width="1.51"/><path d="M452,1272L267,1287L613,1275Z" fill="#88c9e3" stroke="#88c9e3" stroke-width="1.51"/><path d="M1212,1052L1302,963L1197,871Z" fill="#60b6e3" stroke="#60b6e3" stroke-width="1.51"/><path d="M1320,498L1323,295L1250,471Z" fill="#b6dbf0" stroke="#b6dbf0" stroke-width="1.51"/><path d="M1335,796L1364,555L1230,789Z" fill="#83c3e8" stroke="#83c3e8" stroke-width="1.51"/><path d="M1081,115L1022,21L856,189Z" fill="#a3d8e2" stroke="#a3d8e2" stroke-width="1.51"/><path d="M1199,-39L1022,21L1081,115Z" fill="#84ccdb" stroke="#84ccdb" stroke-width="1.51"/><path d="M-183,790L-71,948L-55,717Z" fill="#5dbed4" stroke="#5dbed4" stroke-width="1.51"/><path d="M73,1060L105,1272L275,1082Z" fill="#5fbdd7" stroke="#5fbdd7" stroke-width="1.51"/><path d="M411,-200L372,8L559,-9Z" fill="#8fd5d6" stroke="#8fd5d6" stroke-width="1.51"/><path d="M1022,21L853,-81L856,189Z" fill="#a0d8e0" stroke="#a0d8e0" stroke-width="1.51"/><path d="M686,-182L559,-9L755,-61Z" fill="#a9dfdf" stroke="#a9dfdf" stroke-width="1.51"/><path d="M372,8L270,-44L186,89Z" fill="#7ccfd0" stroke="#7ccfd0" stroke-width="1.51"/><path d="M186,89L34,5L115,136Z" fill="#73cdcd" stroke="#73cdcd" stroke-width="1.51"/><path d="M1554,501L1323,295L1320,498Z" fill="#acd6ee" stroke="#acd6ee" stroke-width="1.51"/><path d="M1212,1052L1343,1113L1302,963Z" fill="#56b4e2" stroke="#56b4e2" stroke-width="1.51"/><path d="M1000,1234L1184,1221L1025,1031Z" fill="#7ac0e7" stroke="#7ac0e7" stroke-width="1.51"/><path d="M1525,1259L1184,1221L1000,1234Z" fill="#60b6e3" stroke="#60b6e3" stroke-width="1.51"/><path d="M-70,1213L105,1272L73,1060Z" fill="#4bb8d3" stroke="#4bb8d3" stroke-width="1.51"/><path d="M-71,948L-104,1063L73,1060Z" fill="#44b6d1" stroke="#44b6d1" stroke-width="1.51"/><path d="M-101,646L-183,790L-55,717Z" fill="#77c7d8" stroke="#77c7d8" stroke-width="1.51"/><path d="M-224,667L-101,646L-249,472Z" fill="#92d3dc" stroke="#92d3dc" stroke-width="1.51"/><path d="M1323,295L1240,107L1219,345Z" fill="#9ad1e5" stroke="#9ad1e5" stroke-width="1.51"/><path d="M1022,21L1051,-144L853,-81Z" fill="#8fd2dc" stroke="#8fd2dc" stroke-width="1.51"/><path d="M-205,1053L-104,1063L-71,948Z" fill="#44b6d1" stroke="#44b6d1" stroke-width="1.51"/><path d="M853,-81L686,-182L755,-61Z" fill="#aadee0" stroke="#aadee0" stroke-width="1.51"/><path d="M876,-241L686,-182L853,-81Z" fill="#a5dcdf" stroke="#a5dcdf" stroke-width="1.51"/><path d="M-183,790L-195,906L-71,948Z" fill="#4ab8d2" stroke="#4ab8d2" stroke-width="1.51"/><path d="M-249,472L-101,646L-44,417Z" fill="#a3dbdf" stroke="#a3dbdf" stroke-width="1.51"/><path d="M1184,1221L1343,1113L1212,1052Z" fill="#5eb6e3" stroke="#5eb6e3" stroke-width="1.51"/><path d="M1302,963L1507,873L1335,796Z" fill="#4ab0e1" stroke="#4ab0e1" stroke-width="1.51"/><path d="M1335,796L1543,760L1364,555Z" fill="#76bee6" stroke="#76bee6" stroke-width="1.51"/><path d="M-224,667L-195,906L-183,790Z" fill="#66c1d5" stroke="#66c1d5" stroke-width="1.51"/><path d="M34,5L-82,160L115,136Z" fill="#6bcacb" stroke="#6bcacb" stroke-width="1.51"/><path d="M115,136L-82,160L-30,336Z" fill="#81d1d1" stroke="#81d1d1" stroke-width="1.51"/><path d="M-222,347L-249,472L-44,417Z" fill="#a8dedf" stroke="#a8dedf" stroke-width="1.51"/><path d="M270,-44L34,5L186,89Z" fill="#6ccacb" stroke="#6ccacb" stroke-width="1.51"/><path d="M244,-181L34,5L270,-44Z" fill="#6bcacb" stroke="#6bcacb" stroke-width="1.51"/><path d="M586,-234L411,-200L559,-9Z" fill="#97d8d9" stroke="#97d8d9" stroke-width="1.51"/><path d="M686,-182L586,-234L559,-9Z" fill="#a2dcdd" stroke="#a2dcdd" stroke-width="1.51"/><path d="M-222,347L-44,417L-30,336Z" fill="#a0dbdc" stroke="#a0dbdc" stroke-width="1.51"/><path d="M-224,667L-205,1053L-195,906Z" fill="#4cb8d2" stroke="#4cb8d2" stroke-width="1.51"/><path d="M-104,1063L-70,1213L73,1060Z" fill="#44b6d1" stroke="#44b6d1" stroke-width="1.51"/><path d="M-205,1053L-70,1213L-104,1063Z" fill="#44b6d1" stroke="#44b6d1" stroke-width="1.51"/><path d="M-174,128L-222,347L-82,160Z" fill="#81d1d1" stroke="#81d1d1" stroke-width="1.51"/><path d="M-82,160L-222,347L-30,336Z" fill="#8fd5d6" stroke="#8fd5d6" stroke-width="1.51"/><path d="M1240,107L1199,-39L1081,115Z" fill="#80cadb" stroke="#80cadb" stroke-width="1.51"/><path d="M686,-182L876,-241L586,-234Z" fill="#afe1e1" stroke="#afe1e1" stroke-width="1.51"/><path d="M1324,26L1199,-39L1240,107Z" fill="#6ec3d7" stroke="#6ec3d7" stroke-width="1.51"/><path d="M1199,-39L1051,-144L1022,21Z" fill="#7fcbd9" stroke="#7fcbd9" stroke-width="1.51"/><path d="M1501,1035L1507,873L1302,963Z" fill="#33abde" stroke="#33abde" stroke-width="1.51"/><path d="M1555,232L1408,174L1323,295Z" fill="#80c7e1" stroke="#80c7e1" stroke-width="1.51"/><path d="M88,-233L244,-181L411,-200Z" fill="#75cdce" stroke="#75cdce" stroke-width="1.51"/><path d="M411,-200L244,-181L270,-44Z" fill="#7dcfd0" stroke="#7dcfd0" stroke-width="1.51"/><path d="M-195,906L-205,1053L-71,948Z" fill="#44b6d1" stroke="#44b6d1" stroke-width="1.51"/><path d="M-237,1259L-205,1053L-224,667Z" fill="#44b6d1" stroke="#44b6d1" stroke-width="1.51"/><path d="M1554,501L1320,498L1364,555Z" fill="#9fd0ed" stroke="#9fd0ed" stroke-width="1.51"/><path d="M1323,295L1408,174L1240,107Z" fill="#87cae0" stroke="#87cae0" stroke-width="1.51"/><path d="M1507,873L1543,760L1335,796Z" fill="#55b3e2" stroke="#55b3e2" stroke-width="1.51"/><path d="M1343,1113L1501,1035L1302,963Z" fill="#42aee0" stroke="#42aee0" stroke-width="1.51"/><path d="M1184,1221L1356,1222L1343,1113Z" fill="#55b3e2" stroke="#55b3e2" stroke-width="1.51"/><path d="M1525,1259L1356,1222L1184,1221Z" fill="#48b0e0" stroke="#48b0e0" stroke-width="1.51"/><path d="M1051,-144L876,-241L853,-81Z" fill="#95d4dd" stroke="#95d4dd" stroke-width="1.51"/><path d="M1543,760L1561,610L1364,555Z" fill="#81c3e8" stroke="#81c3e8" stroke-width="1.51"/><path d="M1408,174L1324,26L1240,107Z" fill="#73c4da" stroke="#73c4da" stroke-width="1.51"/><path d="M1199,-39L1177,-179L1051,-144Z" fill="#78c8d8" stroke="#78c8d8" stroke-width="1.51"/><path d="M1561,610L1554,501L1364,555Z" fill="#94cbeb" stroke="#94cbeb" stroke-width="1.51"/><path d="M-38,-77L-174,128L-82,160Z" fill="#61c7c8" stroke="#61c7c8" stroke-width="1.51"/><path d="M-38,-77L-82,160L34,5Z" fill="#56c4c6" stroke="#56c4c6" stroke-width="1.51"/><path d="M1525,1259L1501,1035L1343,1113Z" fill="#32abde" stroke="#32abde" stroke-width="1.51"/><path d="M1507,873L1649,874L1543,760Z" fill="#4cb1e1" stroke="#4cb1e1" stroke-width="1.51"/><path d="M88,-233L-38,-77L34,5Z" fill="#53c3c5" stroke="#53c3c5" stroke-width="1.51"/><path d="M1332,-186L1177,-179L1199,-39Z" fill="#69c2d6" stroke="#69c2d6" stroke-width="1.51"/><path d="M1051,-144L1177,-179L876,-241Z" fill="#87ceda" stroke="#87ceda" stroke-width="1.51"/><path d="M1694,409L1555,232L1554,501Z" fill="#9dd0ea" stroke="#9dd0ea" stroke-width="1.51"/><path d="M1554,501L1555,232L1323,295Z" fill="#95cde8" stroke="#95cde8" stroke-width="1.51"/><path d="M1408,174L1546,-68L1324,26Z" fill="#54bad5" stroke="#54bad5" stroke-width="1.51"/><path d="M1324,26L1332,-186L1199,-39Z" fill="#61c0d4" stroke="#61c0d4" stroke-width="1.51"/><path d="M1555,232L1530,180L1408,174Z" fill="#77c4de" stroke="#77c4de" stroke-width="1.51"/><path d="M876,-241L88,-233L586,-234Z" fill="#97d8d9" stroke="#97d8d9" stroke-width="1.51"/><path d="M586,-234L88,-233L411,-200Z" fill="#84d2d2" stroke="#84d2d2" stroke-width="1.51"/><path d="M244,-181L88,-233L34,5Z" fill="#62c8c9" stroke="#62c8c9" stroke-width="1.51"/><path d="M1501,1035L1649,874L1507,873Z" fill="#32abde" stroke="#32abde" stroke-width="1.51"/><path d="M1543,760L1674,654L1561,610Z" fill="#79bfe7" stroke="#79bfe7" stroke-width="1.51"/><path d="M1561,610L1674,654L1554,501Z" fill="#8dc8ea" stroke="#8dc8ea" stroke-width="1.51"/><path d="M1676,1097L1649,874L1501,1035Z" fill="#32abde" stroke="#32abde" stroke-width="1.51"/><path d="M1712,775L1674,654L1543,760Z" fill="#6bbae5" stroke="#6bbae5" stroke-width="1.51"/><path d="M-70,1213L-237,1259L105,1272Z" fill="#44b6d1" stroke="#44b6d1" stroke-width="1.51"/><path d="M105,1272L-237,1259L267,1287Z" fill="#4cb8d3" stroke="#4cb8d3" stroke-width="1.51"/><path d="M-205,1053L-237,1259L-70,1213Z" fill="#44b6d1" stroke="#44b6d1" stroke-width="1.51"/><path d="M-249,472L-237,1259L-224,667Z" fill="#62c0d5" stroke="#62c0d5" stroke-width="1.51"/><path d="M1356,1222L1525,1259L1343,1113Z" fill="#3baddf" stroke="#3baddf" stroke-width="1.51"/><path d="M755,1284L1525,1259L1000,1234Z" fill="#77bfe6" stroke="#77bfe6" stroke-width="1.51"/><path d="M-93,-197L-265,26L-38,-77Z" fill="#4ec2c4" stroke="#4ec2c4" stroke-width="1.51"/><path d="M-38,-77L-265,26L-174,128Z" fill="#55c4c5" stroke="#55c4c5" stroke-width="1.51"/><path d="M-174,128L-265,26L-222,347Z" fill="#77cecf" stroke="#77cecf" stroke-width="1.51"/><path d="M-222,347L-265,26L-249,472Z" fill="#8fd5d6" stroke="#8fd5d6" stroke-width="1.51"/><path d="M-249,472L-265,26L-237,1259Z" fill="#94d4dc" stroke="#94d4dc" stroke-width="1.51"/><path d="M1649,874L1712,775L1543,760Z" fill="#56b4e2" stroke="#56b4e2" stroke-width="1.51"/><path d="M1674,654L1694,409L1554,501Z" fill="#9bceec" stroke="#9bceec" stroke-width="1.51"/><path d="M1676,1097L1712,775L1649,874Z" fill="#32abde" stroke="#32abde" stroke-width="1.51"/><path d="M1555,232L1671,242L1530,180Z" fill="#7cc5df" stroke="#7cc5df" stroke-width="1.51"/><path d="M1712,775L1694,409L1674,654Z" fill="#87c5e9" stroke="#87c5e9" stroke-width="1.51"/><path d="M1546,-68L1332,-186L1324,26Z" fill="#4cb8d2" stroke="#4cb8d2" stroke-width="1.51"/><path d="M1177,-179L1332,-186L876,-241Z" fill="#79c9d8" stroke="#79c9d8" stroke-width="1.51"/><path d="M1546,-68L1408,174L1530,180Z" fill="#5fbdd7" stroke="#5fbdd7" stroke-width="1.51"/><path d="M88,-233L-93,-197L-38,-77Z" fill="#4ec2c4" stroke="#4ec2c4" stroke-width="1.51"/><path d="M1694,409L1671,242L1555,232Z" fill="#8bcae4" stroke="#8bcae4" stroke-width="1.51"/><path d="M1620,1238L1676,1097L1501,1035Z" fill="#32abde" stroke="#32abde" stroke-width="1.51"/><path d="M1525,1259L1620,1238L1501,1035Z" fill="#32abde" stroke="#32abde" stroke-width="1.51"/><path d="M1643,-42L1546,-68L1530,180Z" fill="#4bb8d3" stroke="#4bb8d3" stroke-width="1.51"/><path d="M1546,-68L1568,-156L1332,-186Z" fill="#44b6d1" stroke="#44b6d1" stroke-width="1.51"/><path d="M1725,95L1643,-42L1530,180Z" fill="#5bbcd6" stroke="#5bbcd6" stroke-width="1.51"/><path d="M1725,95L1530,180L1671,242Z" fill="#71c2dc" stroke="#71c2dc" stroke-width="1.51"/><path d="M1712,775L1725,95L1694,409Z" fill="#a5d3ed" stroke="#a5d3ed" stroke-width="1.51"/><path d="M1694,409L1725,95L1671,242Z" fill="#82c7e1" stroke="#82c7e1" stroke-width="1.51"/><path d="M1643,-42L1568,-156L1546,-68Z" fill="#44b6d1" stroke="#44b6d1" stroke-width="1.51"/><path d="M88,-233L-270,-218L-93,-197Z" fill="#4ec2c4" stroke="#4ec2c4" stroke-width="1.51"/><path d="M-93,-197L-270,-218L-265,26Z" fill="#4ec2c4" stroke="#4ec2c4" stroke-width="1.51"/><path d="M1643,-42L1728,-145L1568,-156Z" fill="#44b6d1" stroke="#44b6d1" stroke-width="1.51"/><path d="M1568,-156L1728,-145L1332,-186Z" fill="#44b6d1" stroke="#44b6d1" stroke-width="1.51"/><path d="M1332,-186L1728,-145L876,-241Z" fill="#5dbed4" stroke="#5dbed4" stroke-width="1.51"/><path d="M1725,95L1728,-145L1643,-42Z" fill="#44b6d1" stroke="#44b6d1" stroke-width="1.51"/></svg>